# xmcd
#
# Track frame offsets: 
#        150
#        28958
#        52257
#        83750
#        111064
#        130411
#        159558
#        176999
#        195816
#        217277
#        232088
#        248486
#
# Disc length: 3368 seconds
#
# Revision: 0
# Processed by: cddbd v1.5.1PL0 Copyright (c) Steve Scherf et al.
# Submitted via: ExactAudioCopy v0.95a4
#
DISCID=ad0d260c
DTITLE=BB King - BB King and Friends
DYEAR=1987
DGENRE=Blues
TTITLE0=Why I Sing the Blues
TTITLE1=Please Send Me Someone to Love (w Glady Knight)
TTITLE2=The Thrill is Gone (w Eric Clapton and Phil Collins)
TTITLE3=I'd Rather Go Blind (w Etta James and Dr. John)
TTITLE4=When Something is Wrong With My Baby (w Billy Ocean)
TTITLE5=The Sky Is Crying (w SRV and Albert King)
TTITLE6=Somebody's Got a Hold On Me (w Etta James)
TTITLE7=In the Midnight Hour (w Etta James)
TTITLE8=Ain't Nobody's Bizness (w Gladys Knight and Etta James)
TTITLE9=Let the Good Times Roll
TTITLE10=Take My Hand, Precious Lord
TTITLE11=Finale
EXTD=
EXTT0=
EXTT1=
EXTT2=
EXTT3=
EXTT4=
EXTT5=
EXTT6=
EXTT7=
EXTT8=
EXTT9=
EXTT10=
EXTT11=
PLAYORDER=
